# xmcd CD database file
#
# Track frame offsets:
#	150
#	40242
#	59722
#	80120
#	102672
#	126117
#	139815
#	162260
#	177930
#	199812
#	224057
#
# Disc length: 3261 seconds
#
# Revision: 0
# Processed by: cddbd v1.5.1PL0 Copyright (c) Steve Scherf et al.
# Submitted via: CDex 1.51
#
DISCID=b00cbb0b
DTITLE=Louis Armstrong - Louis Armstrong Plays W.C. Handy
DYEAR=1900
DGENRE=Jazz
TTITLE0=St. Louis Blues
TTITLE1=Yellow Dog Blues
TTITLE2=Loveless Love
TTITLE3=Aunt Hagar's Blue
TTITLE4=Long Gone (From The Bowlin' Green)
TTITLE5=The Memphis Blues
TTITLE6=Beale Street Blues
TTITLE7=Ole Miss Blues
TTITLE8=Chantez Les Bas
TTITLE9=Hesitating Blues
TTITLE10=Atlanta Blues
EXTD=
EXTT0=
EXTT1=
EXTT2=
EXTT3=
EXTT4=
EXTT5=
EXTT6=
EXTT7=
EXTT8=
EXTT9=
EXTT10=
PLAYORDER=
